<svg id="Layer_3" enable-background="new 0 0 64 64" height="512" viewBox="0 0 64 64" width="512" xmlns="http://www.w3.org/2000/svg"><g><path d="m13 24c-1.654 0-3 1.346-3 3s1.346 3 3 3 3-1.346 3-3-1.346-3-3-3zm0 4c-.552 0-1-.449-1-1s.448-1 1-1 1 .449 1 1-.448 1-1 1z"/><path d="m13 36c-1.654 0-3 1.346-3 3s1.346 3 3 3 3-1.346 3-3-1.346-3-3-3zm0 4c-.552 0-1-.449-1-1s.448-1 1-1 1 .449 1 1-.448 1-1 1z"/><path d="m13 48c-1.654 0-3 1.346-3 3s1.346 3 3 3 3-1.346 3-3-1.346-3-3-3zm0 4c-.552 0-1-.449-1-1s.448-1 1-1 1 .449 1 1-.448 1-1 1z"/><path d="m25 24c-1.654 0-3 1.346-3 3s1.346 3 3 3 3-1.346 3-3-1.346-3-3-3zm0 4c-.552 0-1-.449-1-1s.448-1 1-1 1 .449 1 1-.448 1-1 1z"/><path d="m25 36c-1.654 0-3 1.346-3 3s1.346 3 3 3 3-1.346 3-3-1.346-3-3-3zm0 4c-.552 0-1-.449-1-1s.448-1 1-1 1 .449 1 1-.448 1-1 1z"/><path d="m25 48c-1.654 0-3 1.346-3 3s1.346 3 3 3 3-1.346 3-3-1.346-3-3-3zm0 4c-.552 0-1-.449-1-1s.448-1 1-1 1 .449 1 1-.448 1-1 1z"/><path d="m37 24c-1.654 0-3 1.346-3 3s1.346 3 3 3 3-1.346 3-3-1.346-3-3-3zm0 4c-.552 0-1-.449-1-1s.448-1 1-1 1 .449 1 1-.448 1-1 1z"/><path d="m37 36c-1.654 0-3 1.346-3 3s1.346 3 3 3 3-1.346 3-3-1.346-3-3-3zm0 4c-.552 0-1-.449-1-1s.448-1 1-1 1 .449 1 1-.448 1-1 1z"/><path d="m37 48c-1.654 0-3 1.346-3 3s1.346 3 3 3 3-1.346 3-3-1.346-3-3-3zm0 4c-.552 0-1-.449-1-1s.448-1 1-1 1 .449 1 1-.448 1-1 1z"/><path d="m60.797 39.857c.742-.726 1.203-1.739 1.203-2.857 0-1.193-.525-2.267-1.357-3 .832-.733 1.357-1.807 1.357-3s-.525-2.267-1.357-3c.832-.733 1.357-1.807 1.357-3s-.525-2.267-1.357-3c.832-.733 1.357-1.807 1.357-3s-.525-2.267-1.357-3c.832-.733 1.357-1.807 1.357-3 0-1.118-.461-2.131-1.203-2.857 1.328-.9 2.203-2.421 2.203-4.143 0-2.757-2.243-5-5-5-1.722 0-3.243.875-4.143 2.203-.726-.742-1.739-1.203-2.857-1.203-1.193 0-2.267.525-3 1.357-.733-.832-1.807-1.357-3-1.357s-2.267.525-3 1.357c-.733-.832-1.807-1.357-3-1.357s-2.267.525-3 1.357c-.733-.832-1.807-1.357-3-1.357s-2.267.525-3 1.357c-.733-.832-1.807-1.357-3-1.357-1.118 0-2.131.461-2.857 1.203-.9-1.328-2.421-2.203-4.143-2.203-2.757 0-5 2.243-5 5 0 1.722.875 3.243 2.203 4.143-.742.726-1.203 1.739-1.203 2.857 0 1.192.523 2.264 1.354 2.997-.24.212-.448.462-.635.733-.262.183-.508.388-.719.627-.733-.832-1.807-1.357-3-1.357-1.118 0-2.131.461-2.857 1.203-.9-1.328-2.421-2.203-4.143-2.203-2.757 0-5 2.243-5 5 0 1.722.875 3.243 2.203 4.143-.742.726-1.203 1.739-1.203 2.857 0 1.193.525 2.267 1.357 3-.832.733-1.357 1.807-1.357 3s.525 2.267 1.357 3c-.832.733-1.357 1.807-1.357 3s.525 2.267 1.357 3c-.832.733-1.357 1.807-1.357 3s.525 2.267 1.357 3c-.832.733-1.357 1.807-1.357 3 0 1.118.461 2.131 1.203 2.857-1.328.9-2.203 2.421-2.203 4.143 0 2.757 2.243 5 5 5 1.722 0 3.243-.875 4.143-2.203.726.742 1.739 1.203 2.857 1.203 1.193 0 2.267-.525 3-1.357.733.832 1.807 1.357 3 1.357s2.267-.525 3-1.357c.733.832 1.807 1.357 3 1.357s2.267-.525 3-1.357c.733.832 1.807 1.357 3 1.357s2.267-.525 3-1.357c.733.832 1.807 1.357 3 1.357 1.118 0 2.131-.461 2.857-1.203.9 1.328 2.421 2.203 4.143 2.203 2.757 0 5-2.243 5-5 0-1.722-.875-3.243-2.203-4.143.742-.726 1.203-1.739 1.203-2.857 0-1.193-.525-2.267-1.357-3 .24-.211.445-.457.628-.72.27-.187.52-.394.732-.634.733.83 1.806 1.354 2.997 1.354 1.118 0 2.131-.461 2.857-1.203.9 1.328 2.421 2.203 4.143 2.203 2.757 0 5-2.243 5-5 0-1.722-.875-3.243-2.203-4.143zm-13.797 18.143c0 1.654-1.346 3-3 3s-3-1.346-3-3c0-.552-.447-1-1-1s-1 .448-1 1c0 1.103-.897 2-2 2s-2-.897-2-2c0-.552-.447-1-1-1s-1 .448-1 1c0 1.103-.897 2-2 2s-2-.897-2-2c0-.552-.447-1-1-1s-1 .448-1 1c0 1.103-.897 2-2 2s-2-.897-2-2c0-.552-.447-1-1-1s-1 .448-1 1c0 1.103-.897 2-2 2s-2-.897-2-2c0-.552-.447-1-1-1s-1 .448-1 1c0 1.103-.897 2-2 2s-2-.897-2-2c0-.552-.447-1-1-1s-1 .448-1 1c0 1.654-1.346 3-3 3s-3-1.346-3-3 1.346-3 3-3c.553 0 1-.448 1-1s-.447-1-1-1c-1.103 0-2-.897-2-2s.897-2 2-2c.553 0 1-.448 1-1s-.447-1-1-1c-1.103 0-2-.897-2-2s.897-2 2-2c.553 0 1-.448 1-1s-.447-1-1-1c-1.103 0-2-.897-2-2s.897-2 2-2c.553 0 1-.448 1-1s-.447-1-1-1c-1.103 0-2-.897-2-2s.897-2 2-2c.553 0 1-.448 1-1s-.447-1-1-1c-1.103 0-2-.897-2-2s.897-2 2-2c.553 0 1-.448 1-1s-.447-1-1-1c-1.654 0-3-1.346-3-3s1.346-3 3-3 3 1.346 3 3c0 .552.447 1 1 1s1-.448 1-1c0-1.103.897-2 2-2s2 .897 2 2c0 .552.447 1 1 1s1-.448 1-1c0-1.103.897-2 2-2s2 .897 2 2c0 .552.447 1 1 1s1-.448 1-1c0-1.103.897-2 2-2s2 .897 2 2c0 .552.447 1 1 1s1-.448 1-1c0-1.103.897-2 2-2s2 .897 2 2c0 .552.447 1 1 1s1-.448 1-1c0-1.103.897-2 2-2s2 .897 2 2c0 .552.447 1 1 1s1-.448 1-1c0-1.654 1.346-3 3-3s3 1.346 3 3-1.346 3-3 3c-.553 0-1 .448-1 1s.447 1 1 1c1.103 0 2 .897 2 2s-.897 2-2 2c-.553 0-1 .448-1 1s.447 1 1 1c1.103 0 2 .897 2 2s-.897 2-2 2c-.553 0-1 .448-1 1s.447 1 1 1c1.103 0 2 .897 2 2s-.897 2-2 2c-.553 0-1 .448-1 1s.447 1 1 1c1.103 0 2 .897 2 2s-.897 2-2 2c-.553 0-1 .448-1 1s.447 1 1 1c1.103 0 2 .897 2 2s-.897 2-2 2c-.553 0-1 .448-1 1s.447 1 1 1c1.654 0 3 1.346 3 3zm11-11c-1.654 0-3-1.346-3-3 0-.552-.447-1-1-1s-1 .448-1 1c0 1.103-.897 2-2 2s-2-.897-2-2c0-.552-.447-1-1-1-.177 0-.335.058-.479.139-.228-.429-.517-.82-.878-1.139.832-.733 1.357-1.807 1.357-3s-.525-2.267-1.357-3c.832-.733 1.357-1.807 1.357-3s-.525-2.267-1.357-3c.832-.733 1.357-1.807 1.357-3 0-1.118-.461-2.131-1.203-2.857 1.328-.9 2.203-2.421 2.203-4.143 0-2.757-2.243-5-5-5-1.722 0-3.243.875-4.143 2.203-.726-.742-1.739-1.203-2.857-1.203-1.193 0-2.267.525-3 1.357-.733-.832-1.807-1.357-3-1.357s-2.267.525-3 1.357c-.733-.832-1.807-1.357-3-1.357s-2.267.525-3 1.357c-.318-.361-.71-.65-1.139-.878.081-.144.139-.302.139-.479 0-.552-.447-1-1-1-1.103 0-2-.897-2-2s.897-2 2-2c.553 0 1-.448 1-1s-.447-1-1-1c-1.654 0-3-1.346-3-3s1.346-3 3-3 3 1.346 3 3c0 .552.447 1 1 1s1-.448 1-1c0-1.103.897-2 2-2s2 .897 2 2c0 .552.447 1 1 1s1-.448 1-1c0-1.103.897-2 2-2s2 .897 2 2c0 .552.447 1 1 1s1-.448 1-1c0-1.103.897-2 2-2s2 .897 2 2c0 .552.447 1 1 1s1-.448 1-1c0-1.103.897-2 2-2s2 .897 2 2c0 .552.447 1 1 1s1-.448 1-1c0-1.103.897-2 2-2s2 .897 2 2c0 .552.447 1 1 1s1-.448 1-1c0-1.654 1.346-3 3-3s3 1.346 3 3-1.346 3-3 3c-.553 0-1 .448-1 1s.447 1 1 1c1.103 0 2 .897 2 2s-.897 2-2 2c-.553 0-1 .448-1 1s.447 1 1 1c1.103 0 2 .897 2 2s-.897 2-2 2c-.553 0-1 .448-1 1s.447 1 1 1c1.103 0 2 .897 2 2s-.897 2-2 2c-.553 0-1 .448-1 1s.447 1 1 1c1.103 0 2 .897 2 2s-.897 2-2 2c-.553 0-1 .448-1 1s.447 1 1 1c1.103 0 2 .897 2 2s-.897 2-2 2c-.553 0-1 .448-1 1s.447 1 1 1c1.654 0 3 1.346 3 3s-1.346 3-3 3z"/><path d="m27 10c-1.654 0-3 1.346-3 3s1.346 3 3 3 3-1.346 3-3-1.346-3-3-3zm0 4c-.552 0-1-.449-1-1s.448-1 1-1 1 .449 1 1-.448 1-1 1z"/><path d="m39 10c-1.654 0-3 1.346-3 3s1.346 3 3 3 3-1.346 3-3-1.346-3-3-3zm0 4c-.552 0-1-.449-1-1s.448-1 1-1 1 .449 1 1-.448 1-1 1z"/><path d="m51 10c-1.654 0-3 1.346-3 3s1.346 3 3 3 3-1.346 3-3-1.346-3-3-3zm0 4c-.552 0-1-.449-1-1s.448-1 1-1 1 .449 1 1-.448 1-1 1z"/><path d="m51 22c-1.654 0-3 1.346-3 3s1.346 3 3 3 3-1.346 3-3-1.346-3-3-3zm0 4c-.552 0-1-.449-1-1s.448-1 1-1 1 .449 1 1-.448 1-1 1z"/><path d="m51 34c-1.654 0-3 1.346-3 3s1.346 3 3 3 3-1.346 3-3-1.346-3-3-3zm0 4c-.552 0-1-.449-1-1s.448-1 1-1 1 .449 1 1-.448 1-1 1z"/></g></svg>