<?xml version="1.0" encoding="iso-8859-1"?>
<!-- Generator: Adobe Illustrator 19.0.0, SVG Export Plug-In . SVG Version: 6.00 Build 0)  -->
<svg version="1.1" id="Layer_1" xmlns="http://www.w3.org/2000/svg" xmlns:xlink="http://www.w3.org/1999/xlink" x="0px" y="0px"
	 viewBox="0 0 496.016 496.016" style="enable-background:new 0 0 496.016 496.016;" xml:space="preserve">
<g>
	<g>
		<g>
			<path d="M363.072,0.008H132.944C60.88,0.008,0,60.872,0,132.936v230.128c0,72.064,60.88,132.944,132.944,132.944h230.112
				c72.064,0,132.944-60.88,132.96-132.928V132.936C496.016,60.872,435.136,0.008,363.072,0.008z M464.016,363.08
				c0,54.72-46.24,100.944-100.944,100.944H132.944C78.224,464.024,32,417.784,32,363.08V132.936
				C32,78.232,78.224,32.008,132.944,32.008h230.128c54.72,0,100.944,46.224,100.944,100.928V363.08z"/>
			<path d="M343.424,164.472c-46.56,0-84.432,37.472-84.432,83.52c0,46.08,37.872,83.552,84.432,83.552s84.432-37.488,84.432-83.552
				C427.856,201.944,389.984,164.472,343.424,164.472z M343.424,299.544c-28.912,0-52.432-23.136-52.432-51.552
				s23.52-51.52,52.432-51.52s52.432,23.12,52.432,51.52C395.856,276.424,372.336,299.544,343.424,299.544z"/>
			<path d="M152.608,164.472c-46.576,0-84.48,37.472-84.48,83.52c0,46.08,37.904,83.552,84.48,83.552
				c46.56,0,84.432-37.488,84.448-83.552C237.056,201.944,199.168,164.472,152.608,164.472z M152.608,299.544
				c-28.944,0-52.48-23.136-52.48-51.552s23.536-51.52,52.48-51.52c28.912,0,52.432,23.12,52.448,51.52
				C205.056,276.424,181.536,299.544,152.608,299.544z"/>
		</g>
	</g>
</g>
<g>
</g>
<g>
</g>
<g>
</g>
<g>
</g>
<g>
</g>
<g>
</g>
<g>
</g>
<g>
</g>
<g>
</g>
<g>
</g>
<g>
</g>
<g>
</g>
<g>
</g>
<g>
</g>
<g>
</g>
</svg>
