<?xml version="1.0" encoding="iso-8859-1"?>
<!-- Generator: Adobe Illustrator 19.0.0, SVG Export Plug-In . SVG Version: 6.00 Build 0)  -->
<svg version="1.1" id="Capa_1" xmlns="http://www.w3.org/2000/svg" xmlns:xlink="http://www.w3.org/1999/xlink" x="0px" y="0px"
	 viewBox="0 0 511.978 511.978" style="enable-background:new 0 0 511.978 511.978;" xml:space="preserve">
<g>
	<g>
		<path d="M505.583,133.32l-21.333-21.333c2.632-1.255,5.031-2.95,7.092-5.012c9.995-10,9.991-26.209-0.009-36.204L441.241,20.68
			c-2.061-2.062-4.46-3.758-7.092-5.012c-12.763-6.083-28.04-0.668-34.124,12.094L378.692,6.429
			c-5.484-6.007-14.104-8.01-21.675-5.035c-5.565,2.613-9.05,8.276-8.875,14.421l-9.557,78.592
			c-0.448,4.088-2.543,7.817-5.803,10.325c-3.475,2.578-7.852,3.626-12.117,2.901l-66.816-10.411
			c-19.418-6.818-40.809,2.482-49.067,21.333L1.604,487.624l-0.512,1.024c-2.375,6.319-0.803,13.444,4.011,18.176
			c3.151,3.216,7.445,5.056,11.947,5.12c2.127,0.022,4.24-0.354,6.229-1.109l1.024-0.512L393.37,307.144
			c18.678-8.245,27.944-29.408,21.333-48.725l-10.411-66.816c-0.721-4.239,0.328-8.588,2.901-12.032
			c2.508-3.259,6.237-5.355,10.325-5.803l78.592-9.557c6.256,0.15,11.985-3.489,14.507-9.216
			C513.593,147.424,511.59,138.803,505.583,133.32z M415.471,156.701c-8.677,0.998-16.569,5.499-21.845,12.459
			c-5.413,7.129-7.664,16.167-6.229,25.003l10.667,67.243c-0.021,0.341-0.021,0.683,0,1.024c3.84,13.653-0.683,25.088-11.435,29.269
			l-1.024,0.512L17.049,494.877l202.667-368.555l0.512-1.024c3.171-8.149,11.239-13.321,19.968-12.8
			c3.145-0.004,6.275,0.427,9.301,1.28h1.024l67.328,10.496c8.808,1.421,17.814-0.83,24.917-6.229
			c6.968-5.27,11.471-13.165,12.459-21.845l9.643-79.189c0.788,0.315,1.489,0.812,2.048,1.451l29.696,29.867
			c0.69,0.688,1.493,1.253,2.374,1.671c4.259,2.017,9.347,0.199,11.365-4.06l5.035-10.837c0.417-0.881,0.982-1.684,1.671-2.374
			c3.328-3.337,8.731-3.343,12.068-0.015L479.3,82.802c0.688,0.69,1.254,1.493,1.671,2.374c2.017,4.259,0.199,9.347-4.06,11.365
			l-10.837,5.035c-0.881,0.417-1.684,0.982-2.374,1.671c-3.337,3.328-3.343,8.731-0.015,12.068l29.952,29.952
			c0.54,0.507,0.975,1.116,1.28,1.792L415.471,156.701z"/>
	</g>
</g>
<g>
	<g>
		<path d="M477.014,106.737c-1.69-4.399-6.627-6.595-11.026-4.905l-57.6,26.88c-3.058,1.393-5.014,4.451-4.995,7.812
			c0.026,4.713,3.867,8.513,8.579,8.487c1.262-0.099,2.486-0.478,3.584-1.109l57.6-26.624
			C476.897,115.223,478.545,110.721,477.014,106.737z"/>
	</g>
</g>
<g>
	<g>
		<path d="M405.99,34.886c-4.228-2.083-9.343-0.344-11.426,3.884l-26.88,57.6c-0.523,1.13-0.792,2.36-0.789,3.605
			c0.012,4.713,3.842,8.524,8.554,8.512c3.282-0.009,6.269-1.901,7.68-4.864l26.88-57.6
			C411.882,41.834,410.106,36.914,405.99,34.886z"/>
	</g>
</g>
<g>
	<g>
		<path d="M402.329,164.637c-12.413-4.736-23.568-12.27-32.597-22.016c-9.739-9.035-17.272-20.188-22.016-32.597
			c-0.002-0.007-0.004-0.014-0.006-0.021c-1.325-4.523-6.066-7.115-10.589-5.789c-4.523,1.325-7.115,6.066-5.789,10.589
			c5.499,15.169,14.505,28.823,26.283,39.851c11.027,11.778,24.682,20.784,39.851,26.283c0.792,0.112,1.597,0.112,2.389,0
			l0.085,0.768c4.713,0.66,9.068-2.626,9.728-7.339C410.328,169.653,407.042,165.297,402.329,164.637z"/>
	</g>
</g>
<g>
	<g>
		<path d="M87.364,424.477c-9.615-9.927-22.965-15.347-36.779-14.933c-4.713,0.306-8.285,4.375-7.979,9.088
			c0.306,4.713,4.375,8.285,9.088,7.979c8.933-0.147,17.514,3.478,23.637,9.984c6.506,6.123,10.131,14.704,9.984,23.637
			c-0.001,0.01-0.001,0.02-0.002,0.031c-0.274,4.705,3.318,8.741,8.023,9.015h0.512c4.52,0.008,8.262-3.51,8.533-8.021
			C102.796,447.425,97.34,434.065,87.364,424.477z"/>
	</g>
</g>
<g>
	<g>
		<path d="M372.42,146.162c-4.477-1.485-9.31,0.941-10.795,5.419l-18.091,54.272c-0.299,0.887-0.451,1.817-0.449,2.753
			c0.012,4.713,3.843,8.523,8.555,8.511c3.691-0.003,6.962-2.379,8.107-5.888l18.091-54.272
			C379.323,152.48,376.897,147.647,372.42,146.162z"/>
	</g>
</g>
<g>
	<g>
		<path d="M365.679,139.506c-1.485-4.477-6.318-6.903-10.795-5.419l-54.272,18.091c-3.526,1.158-5.898,4.463-5.869,8.174
			c0.037,4.713,3.887,8.503,8.6,8.466c0.899-0.002,1.792-0.146,2.645-0.427L360.26,150.3
			C364.737,148.817,367.163,143.984,365.679,139.506z"/>
	</g>
</g>
<g>
	<g>
		<path d="M300.697,222.408c-29.099-7.339-45.141-53.76-45.141-54.187c-1.485-4.477-6.318-6.903-10.795-5.419
			c-4.477,1.484-6.903,6.317-5.419,10.795c0.768,2.219,19.029,55.723,57.259,65.28c0.68,0.082,1.368,0.082,2.048,0
			c3.19-0.358,5.91-2.476,7.038-5.482C307.344,228.983,305.11,224.064,300.697,222.408z"/>
	</g>
</g>
<g>
	<g>
		<path d="M275.097,248.008c-29.099-7.339-45.141-53.76-45.141-54.187c-1.485-4.477-6.317-6.903-10.795-5.419
			c-4.477,1.485-6.903,6.318-5.419,10.795c0.768,2.219,19.029,55.723,57.259,65.28c0.68,0.082,1.368,0.082,2.048,0
			c3.19-0.358,5.91-2.476,7.038-5.482C281.744,254.583,279.51,249.664,275.097,248.008z"/>
	</g>
</g>
<g>
</g>
<g>
</g>
<g>
</g>
<g>
</g>
<g>
</g>
<g>
</g>
<g>
</g>
<g>
</g>
<g>
</g>
<g>
</g>
<g>
</g>
<g>
</g>
<g>
</g>
<g>
</g>
<g>
</g>
</svg>
