<svg height="511pt" viewBox="-3 0 511 511.99982" width="511pt" xmlns="http://www.w3.org/2000/svg"><path d="m501.285156 327.089844-36.425781-20.949219 36.082031-18.910156c4.886719-2.5625 6.773438-8.601563 4.210938-13.488281-2.566406-4.890626-8.605469-6.777344-13.488282-4.210938l-47.328124 24.804688-45.183594-25.984376c1.167968-3.921874 1.804687-8.070312 1.804687-12.363281 0-4.296875-.636719-8.441406-1.808593-12.363281l45.195312-25.980469 47.316406 24.824219c1.480469.78125 3.066406 1.148438 4.632813 1.148438 3.59375 0 7.070312-1.949219 8.855469-5.351563 2.5625-4.886719.679687-10.929687-4.207032-13.492187l-36.074218-18.929688 36.414062-20.933594c4.78125-2.75 6.429688-8.859375 3.679688-13.644531-2.75-4.78125-8.859376-6.429687-13.640626-3.683594l-36.515624 20.992188 1.589843-40.625c.214844-5.515625-4.082031-10.160157-9.597656-10.375-5.511719-.222657-10.15625 4.078125-10.375 9.59375l-2.078125 53.171875-45.179688 25.972656c-5.722656-6.085938-13.179687-10.519531-21.574218-12.507812v-51.789063l45.183594-28.359375c4.671874-2.933594 6.082031-9.101562 3.148437-13.773438-2.933594-4.675781-9.101563-6.085937-13.773437-3.152343l-34.558594 21.691406v-41.914063c0-5.519531-4.472656-9.992187-9.992188-9.992187-5.519531 0-9.992187 4.472656-9.992187 9.992187v41.917969l-34.589844-21.695312c-4.671875-2.933594-10.839844-1.523438-13.773437 3.152343-2.929688 4.675782-1.519532 10.84375 3.15625 13.773438l45.207031 28.359375v51.789063c-8.398438 1.984374-15.859375 6.414062-21.585938 12.5l-39.332031-22.617188v-107.179688c0-5.519531-4.472656-9.992187-9.992188-9.992187-75.132812 0-140.585937 52.371094-159.167968 127.351563-1.328125 5.359374 1.9375 10.777343 7.292968 12.105468 5.355469 1.328125 10.777344-1.941406 12.101563-7.296875 15.539063-62.683593 68.109375-107.429687 129.78125-111.820312v298.292969c-61.679687-4.390626-114.246094-49.148438-129.78125-111.851563-1.324219-5.355469-6.746094-8.617187-12.101563-7.296875-5.355468 1.328125-8.621093 6.746094-7.292968 12.101562 18.578125 75 84.03125 127.382813 159.167968 127.382813 5.519532 0 9.992188-4.472656 9.992188-9.992187v-107.210938l39.316406-22.605469c5.730469 6.09375 13.195313 10.53125 21.601563 12.523438v51.761719l-45.210938 28.382812c-4.675781 2.9375-6.085937 9.105469-3.148437 13.777344 2.933594 4.671875 9.101562 6.082031 13.773437 3.148437l34.585938-21.714843v41.941406c0 5.515625 4.472656 9.992187 9.992187 9.992187 5.519532 0 9.992188-4.476562 9.992188-9.992187v-41.9375l34.554687 21.710937c1.652344 1.035157 3.488281 1.53125 5.304688 1.53125 3.324219 0 6.574219-1.65625 8.472656-4.679687 2.933594-4.671875 1.527344-10.839844-3.148437-13.777344l-45.183594-28.382812v-51.765626c8.398437-1.992187 15.859375-6.429687 21.585937-12.527343l45.167969 25.980469 2.078125 53.152343c.210937 5.382813 4.640625 9.601563 9.980469 9.601563.132812 0 .265625 0 .394531-.007813 5.515625-.214843 9.8125-4.859375 9.597656-10.375l-1.589843-40.605469 36.511718 21c1.570313.902344 3.28125 1.332032 4.972656 1.332032 3.460938 0 6.824219-1.796875 8.671876-5.011719 2.753906-4.785156 1.105468-10.890625-3.675782-13.644531zm-214.59375-41.859375v-58.488281l29.335938 16.867187c-1.171875 3.925781-1.8125 8.078125-1.8125 12.375 0 4.304687.636718 8.453125 1.808594 12.378906zm70.910156-5.84375c-12.902343 0-23.402343-10.496094-23.402343-23.402344 0-12.886719 10.5-23.371094 23.402343-23.371094 12.886719 0 23.371094 10.484375 23.371094 23.371094 0 12.90625-10.484375 23.402344-23.371094 23.402344zm0 0"/><path d="m122.40625 265.992188c5.5 0 9.980469-4.476563 9.980469-10.007813 0-5.5-4.480469-9.976563-9.980469-9.976563-5.527344 0-10.003906 4.476563-10.003906 9.976563 0 5.527344 4.476562 10.007813 10.003906 10.007813zm0 0"/><path d="m56.988281 93.578125 44.902344 35.800781c1.839844 1.46875 4.039063 2.179688 6.222656 2.179688 2.9375 0 5.847657-1.289063 7.820313-3.761719 3.441406-4.316406 2.730468-10.605469-1.582032-14.042969l-44.902343-35.800781c-4.3125-3.441406-10.601563-2.734375-14.042969 1.582031-3.4375 4.316406-2.730469 10.601563 1.582031 14.042969zm0 0"/><path d="m174.09375 66.003906c1.722656 3.574219 5.292969 5.660156 9.011719 5.660156 1.453125 0 2.929687-.320312 4.328125-.992187 4.972656-2.394531 7.0625-8.367187 4.667968-13.339844l-24.890624-51.675781c-2.394532-4.96875-8.363282-7.058594-13.335938-4.664062-4.972656 2.394531-7.0625 8.367187-4.667969 13.335937zm0 0"/><path d="m101.890625 382.621094-44.902344 35.800781c-4.3125 3.441406-5.019531 9.726563-1.582031 14.042969 1.972656 2.476562 4.882812 3.761718 7.820312 3.761718 2.183594 0 4.382813-.710937 6.222657-2.179687l44.902343-35.800781c4.3125-3.4375 5.023438-9.726563 1.582032-14.042969-3.441406-4.3125-9.726563-5.023437-14.042969-1.582031zm0 0"/><path d="m187.433594 441.300781c-4.976563-2.398437-10.945313-.304687-13.339844 4.667969l-24.886719 51.703125c-2.394531 4.972656-.304687 10.941406 4.667969 13.335937 1.398438.675782 2.875.992188 4.328125.992188 3.71875 0 7.289063-2.085938 9.011719-5.660156l24.886718-51.703125c2.394532-4.972657.304688-10.945313-4.667968-13.335938zm0 0"/><path d="m8.273438 204.980469 55.925781 12.757812c.75.171875 1.496093.25 2.234375.25 4.558594 0 8.675781-3.136719 9.730468-7.769531 1.226563-5.382812-2.140624-10.738281-7.519531-11.964844l-55.929687-12.757812c-5.382813-1.21875-10.734375 2.140625-11.960938 7.523437-1.226562 5.378907 2.136719 10.734375 7.519532 11.960938zm0 0"/><path d="m76.164062 301.75c-1.230468-5.378906-6.589843-8.746094-11.96875-7.515625l-55.929687 12.785156c-5.378906 1.226563-8.742187 6.585938-7.511719 11.96875 1.058594 4.628907 5.175782 7.765625 9.730469 7.765625.738281 0 1.488281-.082031 2.234375-.25l55.929688-12.785156c5.378906-1.230469 8.746093-6.589844 7.515624-11.96875zm0 0"/></svg>