<?xml version="1.0" encoding="iso-8859-1"?>
<!-- Generator: Adobe Illustrator 19.0.0, SVG Export Plug-In . SVG Version: 6.00 Build 0)  -->
<svg version="1.1" id="Capa_1" xmlns="http://www.w3.org/2000/svg" xmlns:xlink="http://www.w3.org/1999/xlink" x="0px" y="0px"
	 viewBox="0 0 496 496" style="enable-background:new 0 0 496 496;" xml:space="preserve">
<g>
	<g>
		<path d="M220,320c-19.848,0-36,16.152-36,36c0,19.848,16.152,36,36,36c19.848,0,36-16.152,36-36C256,336.152,239.848,320,220,320z
			 M220,376c-11.024,0-20-8.968-20-20c0-11.032,8.976-20,20-20s20,8.968,20,20C240,367.032,231.024,376,220,376z"/>
	</g>
</g>
<g>
	<g>
		<path d="M248,200c-13.232,0-24,10.768-24,24s10.768,24,24,24s24-10.768,24-24S261.232,200,248,200z M248,232c-4.408,0-8-3.592-8-8
			s3.592-8,8-8s8,3.592,8,8S252.408,232,248,232z"/>
	</g>
</g>
<g>
	<g>
		<path d="M376,328c-13.232,0-24,10.768-24,24s10.768,24,24,24s24-10.768,24-24S389.232,328,376,328z M376,360c-4.408,0-8-3.584-8-8
			c0-4.416,3.592-8,8-8c4.408,0,8,3.584,8,8C384,356.416,380.408,360,376,360z"/>
	</g>
</g>
<g>
	<g>
		<path d="M324,416c-13.232,0-24,10.768-24,24s10.768,24,24,24s24-10.768,24-24S337.232,416,324,416z M324,448c-4.408,0-8-3.584-8-8
			c0-4.416,3.592-8,8-8c4.408,0,8,3.584,8,8C332,444.416,328.408,448,324,448z"/>
	</g>
</g>
<g>
	<g>
		<path d="M76,184c-19.848,0-36,16.152-36,36s16.152,36,36,36s36-16.152,36-36C112,200.152,95.848,184,76,184z M76,240
			c-11.024,0-20-8.976-20-20s8.976-20,20-20s20,8.976,20,20S87.024,240,76,240z"/>
	</g>
</g>
<g>
	<g>
		<path d="M112,56c-13.232,0-24,10.768-24,24s10.768,24,24,24s24-10.768,24-24S125.232,56,112,56z M112,88c-4.408,0-8-3.592-8-8
			s3.592-8,8-8s8,3.592,8,8S116.408,88,112,88z"/>
	</g>
</g>
<g>
	<g>
		<path d="M240,48c-13.232,0-24,10.768-24,24s10.768,24,24,24s24-10.768,24-24S253.232,48,240,48z M240,80c-4.408,0-8-3.592-8-8
			s3.592-8,8-8s8,3.592,8,8S244.408,80,240,80z"/>
	</g>
</g>
<g>
	<g>
		<path d="M492.256,283.864l-1.984-9.504l-8.952,3.768c-2.952,1.24-6.088,1.872-9.32,1.872c-9.208,0-17.456-5.224-21.52-13.632
			l-3.184-6.584l-6.84,2.584c-16.808,6.36-32.44-6.472-32.48-21.816l0.336-7.816l-6.224-1.592C391.44,228.432,384,218.912,384,208
			c0-2.744,0.544-5.584,1.632-8.44l2.592-6.848l-6.592-3.184C373.224,185.464,368,177.208,368,168c0-2.488,0.48-5.056,1.464-7.864
			l2.88-8.224l-8.44-2.168c-4.912-1.264-9.816-2.248-14.712-3.096C335.032,62.664,261.72,0,176,0C78.952,0,0,78.952,0,176
			c0,85.664,62.568,158.92,146.464,173.16C160.4,432.376,232.888,496,320,496c97.048,0,176-78.952,176-176
			C496,307.928,494.736,295.776,492.256,283.864z M144.496,332.568C70.576,317.752,16,252.28,16,176C16,87.776,87.776,16,176,16
			c76.288,0,141.776,54.6,156.568,128.536C328.352,144.208,324.152,144,320,144c-26.208,0-51.072,5.8-73.44,16.112
			C243.28,150.768,234.456,144,224,144c-13.232,0-24,10.768-24,24c0,6.608,2.8,12.608,7.256,16.984
			C168.624,217.296,144,265.816,144,320C144,324.232,144.2,328.408,144.496,332.568z M231.944,167.712
			c-3.96,2.296-7.824,4.72-11.576,7.312c-2.6-1.328-4.368-3.992-4.368-7.024c0-4.408,3.592-8,8-8
			C228.312,160,231.784,163.44,231.944,167.712z M320,480c-88.224,0-160-71.776-160-160s71.776-160,160-160
			c10.544,0,21.368,1.16,32.288,3.448c-0.192,1.528-0.288,3.04-0.288,4.552c0,13.104,6.288,25.016,16.768,32.448
			c-0.512,2.52-0.768,5.048-0.768,7.552c0,16.152,9.72,30.472,24.272,36.672C394.592,264.528,411.52,280,432,280
			c2.504,0,5.024-0.256,7.552-0.768C446.984,289.712,458.896,296,472,296c2.064,0,4.104-0.16,6.112-0.464
			C479.368,303.656,480,311.848,480,320C480,408.224,408.224,480,320,480z"/>
	</g>
</g>
<g>
	<g>
		<rect x="296" y="184" width="16" height="16"/>
	</g>
</g>
<g>
	<g>
		<rect x="312" y="240" width="16" height="16"/>
	</g>
</g>
<g>
	<g>
		<rect x="184" y="272" width="16" height="16"/>
	</g>
</g>
<g>
	<g>
		<rect x="256" y="288" width="16" height="16"/>
	</g>
</g>
<g>
	<g>
		<rect x="296" y="352" width="16" height="16"/>
	</g>
</g>
<g>
	<g>
		<rect x="248" y="432" width="16" height="16"/>
	</g>
</g>
<g>
	<g>
		<rect x="384" y="416" width="16" height="16"/>
	</g>
</g>
<g>
	<g>
		<rect x="424" y="328" width="16" height="16"/>
	</g>
</g>
<g>
	<g>
		<rect x="272" y="112" width="16" height="16"/>
	</g>
</g>
<g>
	<g>
		<rect x="184" y="96" width="16" height="16"/>
	</g>
</g>
<g>
	<g>
		<rect x="168" y="32" width="16" height="16"/>
	</g>
</g>
<g>
	<g>
		<rect x="40" y="128" width="16" height="16"/>
	</g>
</g>
<g>
	<g>
		<rect x="128" y="144" width="16" height="16"/>
	</g>
</g>
<g>
	<g>
		<rect x="144" y="208" width="16" height="16"/>
	</g>
</g>
<g>
	<g>
		<rect x="104" y="280" width="16" height="16"/>
	</g>
</g>
<g>
	<g>
		<rect x="360" y="280" width="16" height="16"/>
	</g>
</g>
<g>
</g>
<g>
</g>
<g>
</g>
<g>
</g>
<g>
</g>
<g>
</g>
<g>
</g>
<g>
</g>
<g>
</g>
<g>
</g>
<g>
</g>
<g>
</g>
<g>
</g>
<g>
</g>
<g>
</g>
</svg>
